<svg id="Layer_1" data-name="Layer 1" xmlns="http://www.w3.org/2000/svg" viewBox="0 0 612 612"><path d="M306.8,326.67c-.69-6.94-3.66-12.54-10.42-15-7.22-2.65-14.42-2.29-20.4,3.22-4.65,4.27-5.52,10.06-5.36,16.08.39,14.27,14,22.56,26.86,16.34,7.2-3.47,9.28-9.88,9.49-17.82C306.94,328.91,306.91,327.78,306.8,326.67Zm-10.88,8.82c-1,3.82-3.29,5.56-7,5.59s-6.62-1.8-7.22-5.69a38.72,38.72,0,0,1-.13-10.91c.55-4.21,3.24-6.16,7.11-6.2s6.38,1.88,7.39,6a47.3,47.3,0,0,1,.7,5.63A52.27,52.27,0,0,1,295.92,335.49Z"/><path d="M219.56,315.74c-3.5-9.87-13.11-16.36-24.67-16.41-15.06-.08-30.11,0-45.17,0h-3.36V275.17c3.87,0,7.53.06,11.2,0,8.32-.16,15.36-3.07,20.57-9.79,6.07-7.8,7.21-16.52,3.53-25.44s-10.75-14.43-20.53-15.48c-15.43-1.65-27.87,9.53-28.25,25.05-.09,4,0,7.93,0,12.24h-4c-15.06,0-30.12-.13-45.17,0-18.45.2-30.27,16.79-24.5,34.14,3.3,10,13.1,16.67,24.76,16.74,15,.08,30.11,0,45.16,0h3.67c0,7.82,0,15.08,0,22.34a15.55,15.55,0,0,1-.22,1.8c-3.89,0-7.65-.07-11.41,0-12.82.26-22.75,8.26-25.38,20.39A25.37,25.37,0,0,0,143,374.35c2.64-5,3.17-10.29,3.13-15.76,0-2.71,0-5.42,0-8.35h4.19c15,0,29.91.13,44.86,0C213.76,350,225.66,333,219.56,315.74Zm-73-62.44a25.25,25.25,0,0,1,1-7.82,11.08,11.08,0,0,1,13.32-7c6,1.51,9.2,6.27,8.61,12.68-.51,5.58-5.07,9.7-11,9.92-1.43.05-2.87,0-4.3,0C146.56,261.11,146.48,261.11,146.6,253.3Zm-16,46c-15.67,0-31.33.07-47,0-7.46,0-12.64-5.42-12.43-12.64.17-6.13,4.74-11.25,11.09-11.33,16.68-.24,33.36-.08,50.4-.08.06,1,.14,1.74.14,2.43,0,7,0,14.1,0,21.31A16.55,16.55,0,0,1,130.64,299.29Zm2.1,63.37c-.42,5.17-2.94,9.12-8.05,10.94a11.41,11.41,0,0,1-12.24-2.53c-3.83-3.54-4.7-8.13-3-12.95a11.09,11.09,0,0,1,9.83-7.71c4.35-.4,8.75-.09,13.51-.09C132.81,354.7,133.06,358.71,132.74,362.66Zm73-32c-2.5,4.46-6.74,5.63-11.45,5.84H171.85c-7.37,0-14.74-.06-22.11.05-2.32,0-3.31-.51-3.23-3.06.17-5.83.13-11.67,0-17.5,0-2.21.57-3.06,2.93-3.05,14.94.09,29.88,0,44.83.07C204.5,313.08,210.4,322.3,205.71,330.65Z"/><polygon points="226.75 273.73 226.75 281.87 198.87 281.87 198.87 233.17 226.72 233.17 226.72 241.34 209.16 241.34 209.16 252.39 225.45 252.39 225.45 260.67 209.15 260.67 209.15 273.73 226.75 273.73"/><path d="M264.28,337.67c-1,5.68-5.63,9.91-12.79,11.05a33.39,33.39,0,0,1-16.62-1.48c-1.87-.67-2.55-1.61-2.4-3.55.17-2.13,0-4.28,0-6.75a63.41,63.41,0,0,0,7.32,2.44,52.85,52.85,0,0,0,9,1.06c2.51.08,4.64-1.05,5.37-3.71s-.67-4.58-2.76-6c-1.62-1.07-3.38-1.9-5.09-2.81-2-1.06-4.05-2-6-3.16-5.89-3.68-8.42-9.51-6.95-15.67,1.37-5.81,6.07-9.69,12.92-10.4a32.45,32.45,0,0,1,17.78,3.37l-3.08,7.3c-4-.8-7.66-1.74-11.37-2.2-2.78-.35-5.36.49-6.32,3.62-.82,2.72.29,4.72,3.67,6.59,3,1.62,6.05,3,9,4.66C262.92,326,265.44,330.88,264.28,337.67Z"/><path d="M510.88,348.16h-9.74c0-5.9,0-11.7,0-17.5,0-2.05.06-4.11-.13-6.14-.34-3.79-2.15-5.86-5.2-6.24-3.73-.46-6.93,1.22-8,4.7a27.9,27.9,0,0,0-1.06,7.23c-.15,5,0,10-.05,15,0,1-.08,2-.13,3.07h-9.77v-37.2h7.38c.49,1.44,1,2.95,1.7,4.95,3.7-4.81,8.5-6.15,14-5.73,6.05.46,10.59,4.06,10.89,10C511.22,329.54,510.88,338.74,510.88,348.16Z"/><path d="M449.42,310.3c-11.74.11-18.06,7.16-18,20,.09,11.54,7.18,18.9,18.11,18.79,11.65-.11,18.3-7.38,18.23-19.92C467.71,317.52,460.57,310.18,449.42,310.3Zm7.36,25.05c-.88,3.73-3.28,5.63-6.94,5.73-3.87.1-6.71-1.61-7.27-5.55a42,42,0,0,1,.09-12c.54-3.59,3.34-5.21,6.94-5.19a6.82,6.82,0,0,1,7,5.26,56.75,56.75,0,0,1,1,6.13C457.34,331.74,457.2,333.57,456.78,335.35Z"/><path d="M427.81,265.77c0-2.31.07-4.33,0-6.35-.3-7.11-4.47-12.89-10.54-14.73-7.8-2.38-16.11-.1-20.22,5.67s-4.21,12.21-3.16,18.82a15.7,15.7,0,0,0,6.35,10.13c6.11,4.74,19.47,3.94,24.21,1.45a2.41,2.41,0,0,0,1.23-1.52c.14-2.08.05-4.18.05-6.48-2.66.78-4.76,1.59-6.94,2a40.63,40.63,0,0,1-6.7.53c-4.56.05-9.17-4.12-8-9.51Zm-16.93-14.66c4.81-.09,7.45,2.76,7.14,8H404.14C403.75,254.31,406.42,251.2,410.88,251.11Z"/><path d="M339.41,247.77c-9.33-8.34-25.37-3.55-28.31,8.59-2.06,8.55-2.12,17.08,5.95,22.78,7.46,5.24,15.86,4.45,24.11,1.63A2.42,2.42,0,0,0,342.4,279c.16-2,.06-4,.06-5.61-4.53.68-8.72,1.68-12.93,1.85-5.6.22-8.73-3.16-9.07-9.41H324c6,0,12.08.06,18.13-.06.85,0,2.4-.83,2.42-1.34C344.87,258.28,344.43,252.26,339.41,247.77Zm-4.5,11.33H320.82c.12-5.56,2.74-8.19,7.62-8C332.76,251.34,335.16,254.22,334.91,259.1Z"/><path d="M371.12,311.17v37h-7.38L362,343.4c-3.77,4.78-8.58,6.06-14.05,5.61-5.93-.48-10.48-4-10.77-9.83-.48-9.27-.13-18.58-.13-28.06h9.72c0,6.77,0,13.39,0,20a35,35,0,0,0,.32,4.57c.38,2.94,1.84,5,5,5.36,3.52.43,6.66-.82,7.61-3.81a39.31,39.31,0,0,0,1.61-9.89c.26-5.31.08-10.63.08-16.21Z"/><path d="M470.77,282h-9.66c0-6.4,0-12.62,0-18.84a40.51,40.51,0,0,0-.25-5.51c-.41-3-1.74-5.21-5.09-5.63S449,253,448,256.17a37.4,37.4,0,0,0-1.42,9.31c-.22,5.4-.06,10.81-.06,16.45H436.7V244.82h7.38c.51,1.43,1.05,2.92,1.76,4.9,3.82-5,8.79-6.23,14.37-5.72s10.15,4.07,10.43,9.52C471.12,262.88,470.77,272.29,470.77,282Z"/><path d="M270.4,282.13c-3.75,0-7,.12-10.22-.08-.76-.05-1.64-1.05-2.14-1.82-2.25-3.51-4.39-7.1-6.86-11.14-2.42,4-4.66,7.44-6.72,11a3.55,3.55,0,0,1-3.66,2.06c-2.74-.12-5.5,0-8.9,0,1.27-2,2.24-3.62,3.27-5.18,2.63-4,5.22-8.07,8-12a3,3,0,0,0,0-4.08c-3.56-5.21-7-10.52-10.78-16.3,3.85,0,7.16-.09,10.48.08.67,0,1.48.91,1.92,1.59,2.1,3.26,4.08,6.58,6.41,10.38,2.24-3.59,4.34-6.77,6.23-10.08a3.51,3.51,0,0,1,3.66-2c2.8.14,5.63,0,9,0-3.76,5.65-7.11,10.87-10.68,15.94-1.26,1.8-1.24,3.07,0,4.86,3.18,4.5,6.16,9.16,9.2,13.76C269.16,280,269.63,280.84,270.4,282.13Z"/><path d="M540.54,347.9c-6,1.88-12.08,1.53-18.14,0-2-.49-3-1.38-2.73-3.6a46.17,46.17,0,0,0,0-5.28c3.13.85,5.83,1.79,8.6,2.27a20.6,20.6,0,0,0,6.69.17,3.1,3.1,0,0,0,1.13-5.91c-3.26-1.9-6.77-3.34-10.13-5.06s-5.65-4.23-6.09-8.23c-.56-5,1.54-9,6.3-10.65,7.29-2.53,14.41-1.57,21.55,1.53l-2.94,7c-2.46-.75-4.66-1.53-6.92-2.06a11.26,11.26,0,0,0-4.53-.31c-1.23.24-2.28,1.32-3.42,2,.74,1.13,1.22,2.73,2.25,3.3,3,1.68,6.3,2.92,9.44,4.4s5.51,3.79,6.29,7.42C549.2,340.88,546.4,346.08,540.54,347.9Z"/><path d="M303.32,271.82a57.6,57.6,0,0,1-.08,6.77,3.51,3.51,0,0,1-1.77,2.44,24,24,0,0,1-18.22.07c-4.11-1.63-6.48-5-7.65-9.06a29.51,29.51,0,0,1,0-16.66A14.68,14.68,0,0,1,285,245.21c6.43-2.28,12.83-1.7,19.44,1.13L301.65,254c-5.47-1.23-11.29-4.9-15.41,2-2.57,4.26-2.17,13.45.92,16.39C292.24,277.13,297.58,274.19,303.32,271.82Z"/><path d="M404.44,346.38a2.79,2.79,0,0,1-1.93,1.8c-3.53.38-7.13.94-10.62.59-5.09-.51-8-4.43-8.18-10.22-.14-5.41,0-10.83,0-16.25,0-1.11,0-2.22,0-3.55l-4.55-.52c-.84-2.44-.69-4.45,2.14-5.6a7.27,7.27,0,0,0,4.23-4.87c1.73-5.18,1.85-5.15,8.15-4.64,0,1.66.11,3.18,0,4.68-.21,2.32.51,3.38,3.05,3.16s4.86,0,7.48,0v7.52c-1.58,0-3.15,0-4.72,0-6.71.1-5.7-.93-5.78,5.91-.05,3.47,0,7,0,10.43,0,5.5,2,7.12,7.45,6.14,1-.18,2-.42,3.44-.73A48.53,48.53,0,0,1,404.44,346.38Z"/><path d="M504,280.09a2.5,2.5,0,0,1-1.68,1.69c-3.85.34-7.76,1-11.55.51-4.65-.54-7.29-4.19-7.5-9.48s-.11-10.64-.13-16c0-4.53,0-4.53-4.56-5-.86-2.36-.61-4.26,2-5.41a7.88,7.88,0,0,0,4.43-5.11c1.75-5.24,1.86-5.2,8.12-4.48v7.69h10.56a54.53,54.53,0,0,1-.07,5.91c-.08.59-1,1.25-1.71,1.54a5.57,5.57,0,0,1-2.13.08c-6.69,0-6.69,0-6.69,6.86,0,3.17,0,6.35,0,9.52,0,5.45,1.8,7,7.19,6.22,1.1-.16,2.18-.43,3.78-.76A55,55,0,0,1,504,280.09Z"/><rect x="316.17" y="296.39" width="9.42" height="51.91"/><path d="M363.12,229.9v52.21c-2.84,0-5.67.15-8.45-.13-.55-.05-1.32-1.79-1.33-2.76-.11-8-.07-15.94-.07-23.91V229.9Z"/><path d="M384.53,278.93c0,2.55-.74,3.5-3.3,3.27-2.1-.19-4.25,0-6.62,0V229.94h9.62c.08,1,.24,1.93.24,2.9C384.49,248.21,384.42,263.57,384.53,278.93Z"/><rect x="412.79" y="311.12" width="9.65" height="37.03"/><path d="M423,300.91c0,3.16-1.82,4.95-5.22,5-3.59.07-5.7-1.77-5.66-4.94s2-4.8,5.43-4.82S422.93,297.78,423,300.91Z"/></svg>